<svg width="100" height="100" viewBox="0 0 100 100" fill="none" xmlns="http://www.w3.org/2000/svg">
<rect width="100" height="100" fill="#F3F0E1"/>
<path d="M79.04 50C77.0668 46.0834 73.8499 42.9321 69.8934 41.04C70.92 40.56 72.8667 39.1733 75.08 35.6C76.8122 32.5346 77.6701 29.0526 77.56 25.5333C77.5584 25.3202 77.5112 25.1098 77.4215 24.9164C77.3318 24.723 77.2017 24.5511 77.04 24.4121C76.8784 24.2732 76.6888 24.1705 76.4841 24.1109C76.2794 24.0513 76.0644 24.0362 75.8534 24.0667C73.2002 24.3957 70.5231 24.4894 67.8534 24.3467C64.5462 24.1678 61.2852 25.1853 58.6667 27.2133C55.9384 26.0004 52.9858 25.3736 50 25.3736C47.0142 25.3736 44.0617 26.0004 41.3334 27.2133C38.7115 25.1697 35.4395 24.1422 32.12 24.32C29.4503 24.4628 26.7732 24.3691 24.12 24.04C23.909 24.0096 23.694 24.0246 23.4893 24.0842C23.2846 24.1438 23.095 24.2465 22.9333 24.3854C22.7717 24.5244 22.6416 24.6963 22.5519 24.8897C22.4622 25.0831 22.415 25.2935 22.4134 25.5067C22.3033 29.0259 23.1612 32.5079 24.8934 35.5733C27.1067 39.1467 29.0534 40.5333 30.08 41.0133C26.1292 42.917 22.9217 46.0777 20.96 50C20.8974 50.125 20.8712 50.265 20.8842 50.4041C20.8973 50.5433 20.9492 50.676 21.0339 50.7871C21.1186 50.8982 21.2329 50.9834 21.3636 51.0328C21.4943 51.0822 21.6363 51.094 21.7734 51.0667C24.0151 50.8078 26.2855 51.1387 28.36 52.0267C28.24 52.0267 25.32 52.9467 23.6667 57.1733C23.6146 57.2996 23.5982 57.4378 23.6192 57.5728C23.6402 57.7078 23.6978 57.8345 23.7858 57.939C23.8738 58.0435 23.9888 58.1219 24.1183 58.1655C24.2477 58.2092 24.3867 58.2165 24.52 58.1867C25.4965 57.9108 26.5302 57.9108 27.5067 58.1867C27.12 66.6133 40.1734 72.6667 50 72.6667C59.8267 72.6667 72.88 66.6133 72.4934 58.2C73.4698 57.9242 74.5036 57.9242 75.48 58.2C75.6135 58.228 75.752 58.2196 75.8811 58.1756C76.0102 58.1317 76.125 58.0538 76.2137 57.9502C76.3023 57.8466 76.3614 57.721 76.3848 57.5867C76.4082 57.4523 76.3951 57.3142 76.3467 57.1867C74.68 52.96 71.76 52.08 71.64 52.04C73.7146 51.152 75.985 50.8211 78.2267 51.08C78.3655 51.1092 78.5098 51.0981 78.6426 51.0483C78.7754 50.9984 78.8912 50.9118 78.9765 50.7984C79.0619 50.6851 79.1132 50.5499 79.1244 50.4085C79.1356 50.2671 79.1064 50.1254 79.04 50Z" fill="#DEA47A"/>
<path d="M24.1467 28.4267C26.7999 28.7557 29.477 28.8494 32.1467 28.7067C34.9622 28.5765 37.7512 29.3016 40.1467 30.7867C40.5016 31.0181 40.9044 31.1659 41.3248 31.219C41.7451 31.2721 42.172 31.2292 42.5734 31.0933C47.3589 29.3336 52.6145 29.3336 57.4 31.0933C57.8014 31.2292 58.2283 31.2721 58.6486 31.219C59.069 31.1659 59.4718 31.0181 59.8267 30.7867C62.2222 29.3016 65.0112 28.5765 67.8267 28.7067C70.4964 28.8494 73.1735 28.7557 75.8267 28.4267C76.1092 28.3876 76.397 28.4295 76.6566 28.5475C76.9163 28.6655 77.1371 28.8548 77.2934 29.0933C77.4656 27.9058 77.5458 26.7066 77.5334 25.5067C77.5318 25.2935 77.4845 25.0831 77.3948 24.8897C77.3051 24.6963 77.1751 24.5244 77.0134 24.3854C76.8517 24.2465 76.6621 24.1438 76.4575 24.0842C76.2528 24.0246 76.0377 24.0096 75.8267 24.04C73.1735 24.3695 70.4964 24.4632 67.8267 24.32C64.5252 24.1551 61.2744 25.182 58.6667 27.2133C55.9384 26.0004 52.9858 25.3736 50 25.3736C47.0142 25.3736 44.0617 26.0004 41.3334 27.2133C38.7115 25.1697 35.4395 24.1422 32.12 24.32C29.4503 24.4628 26.7732 24.3691 24.12 24.04C23.909 24.0096 23.694 24.0246 23.4893 24.0842C23.2846 24.1438 23.095 24.2465 22.9333 24.3854C22.7717 24.5244 22.6416 24.6963 22.5519 24.8897C22.4622 25.0831 22.415 25.2935 22.4134 25.5067C22.4009 26.7066 22.4811 27.9058 22.6534 29.0933C22.8117 28.8503 23.0368 28.658 23.3017 28.5398C23.5666 28.4215 23.86 28.3822 24.1467 28.4267Z" fill="#F0C2A1"/>
<path d="M79.04 50C77.0668 46.0834 73.8499 42.9321 69.8934 41.04C70.92 40.56 72.8667 39.1733 75.08 35.6C76.8122 32.5346 77.6701 29.0526 77.56 25.5333C77.5584 25.3202 77.5112 25.1098 77.4215 24.9164C77.3318 24.723 77.2017 24.5511 77.04 24.4121C76.8784 24.2732 76.6888 24.1705 76.4841 24.1109C76.2794 24.0513 76.0644 24.0362 75.8534 24.0667C73.2002 24.3957 70.5231 24.4894 67.8534 24.3467C64.5462 24.1678 61.2852 25.1853 58.6667 27.2133C55.9384 26.0004 52.9858 25.3736 50 25.3736C47.0142 25.3736 44.0617 26.0004 41.3334 27.2133C38.7115 25.1697 35.4395 24.1422 32.12 24.32C29.4503 24.4628 26.7732 24.3691 24.12 24.04C23.909 24.0096 23.694 24.0246 23.4893 24.0842C23.2846 24.1438 23.095 24.2465 22.9333 24.3854C22.7717 24.5244 22.6416 24.6963 22.5519 24.8897C22.4622 25.0831 22.415 25.2935 22.4134 25.5067C22.3033 29.0259 23.1612 32.5079 24.8934 35.5733C27.1067 39.1467 29.0534 40.5333 30.08 41.0133C26.1292 42.917 22.9217 46.0777 20.96 50C20.8974 50.125 20.8712 50.265 20.8842 50.4041C20.8973 50.5433 20.9492 50.676 21.0339 50.7871C21.1186 50.8982 21.2329 50.9834 21.3636 51.0328C21.4943 51.0822 21.6363 51.094 21.7734 51.0667C24.0151 50.8078 26.2855 51.1387 28.36 52.0267C28.24 52.0267 25.32 52.9467 23.6667 57.1733C23.6146 57.2996 23.5982 57.4378 23.6192 57.5728C23.6402 57.7078 23.6978 57.8345 23.7858 57.939C23.8738 58.0435 23.9888 58.1219 24.1183 58.1655C24.2477 58.2092 24.3867 58.2165 24.52 58.1867C25.4965 57.9108 26.5302 57.9108 27.5067 58.1867C27.12 66.6133 40.1734 72.6667 50 72.6667C59.8267 72.6667 72.88 66.6133 72.4934 58.2C73.4698 57.9242 74.5036 57.9242 75.48 58.2C75.6135 58.228 75.752 58.2196 75.8811 58.1756C76.0102 58.1317 76.125 58.0538 76.2137 57.9502C76.3023 57.8466 76.3614 57.721 76.3848 57.5867C76.4082 57.4523 76.3951 57.3142 76.3467 57.1867C74.68 52.96 71.76 52.08 71.64 52.04C73.7146 51.152 75.985 50.8211 78.2267 51.08C78.3655 51.1092 78.5098 51.0981 78.6426 51.0483C78.7754 50.9984 78.8912 50.9118 78.9765 50.7984C79.0619 50.6851 79.1132 50.5499 79.1244 50.4085C79.1356 50.2671 79.1064 50.1254 79.04 50Z" stroke="#45413C" stroke-linecap="round" stroke-linejoin="round"/>
<path d="M75.08 35.5733C76.3491 33.4153 77.1403 31.01 77.4 28.52C75.1815 29.4296 72.7623 29.7378 70.3866 29.4133C65.52 28.76 63.72 30.48 63.72 30.48C66.8821 33.215 69.0523 36.918 69.8933 41.0133C70.92 40.5333 72.8666 39.1467 75.08 35.5733Z" fill="#FFCABF"/>
<path d="M66 32.7867C67.5344 32.4551 69.1173 32.4144 70.6667 32.6667C72.6816 32.9338 74.7306 32.7516 76.6667 32.1333C77.0289 30.9544 77.2833 29.745 77.4267 28.52C75.2082 29.4296 72.789 29.7378 70.4134 29.4133C65.5467 28.76 63.7467 30.48 63.7467 30.48C64.561 31.1845 65.3147 31.9561 66 32.7867Z" fill="#FFA694"/>
<path d="M75.08 35.5733C76.3491 33.4153 77.1403 31.01 77.4 28.52C75.1815 29.4296 72.7623 29.7378 70.3866 29.4133C65.52 28.76 63.72 30.48 63.72 30.48C66.8821 33.215 69.0523 36.918 69.8933 41.0133C70.92 40.5333 72.8666 39.1467 75.08 35.5733Z" stroke="#45413C" stroke-linecap="round" stroke-linejoin="round"/>
<path d="M24.92 35.5733C23.6508 33.4153 22.8597 31.01 22.6 28.52C24.8184 29.4296 27.2376 29.7378 29.6133 29.4133C34.48 28.76 36.28 30.48 36.28 30.48C33.1179 33.215 30.9477 36.918 30.1066 41.0133C29.08 40.5333 27.1333 39.1467 24.92 35.5733Z" fill="#FFCABF"/>
<path d="M34.0001 32.7867C32.4657 32.4551 30.8828 32.4144 29.3334 32.6667C27.3186 32.9364 25.269 32.7542 23.3334 32.1333C22.9608 30.9563 22.7019 29.7464 22.5601 28.52C24.7785 29.4296 27.1977 29.7378 29.5734 29.4133C34.4401 28.76 36.2401 30.48 36.2401 30.48C35.4304 31.1851 34.6811 31.9567 34.0001 32.7867Z" fill="#FFA694"/>
<path d="M24.92 35.5733C23.6508 33.4153 22.8597 31.01 22.6 28.52C24.8184 29.4296 27.2376 29.7378 29.6133 29.4133C34.48 28.76 36.28 30.48 36.28 30.48C33.1179 33.215 30.9477 36.918 30.1066 41.0133C29.08 40.5333 27.1333 39.1467 24.92 35.5733Z" stroke="#45413C" stroke-linecap="round" stroke-linejoin="round"/>
<path d="M57.2134 58.8133C57.2134 58.8133 58.7467 58.8133 61.9334 55.1067C63.2702 53.6262 64.2911 51.8885 64.9334 50C64.967 49.8618 65.0387 49.7358 65.1404 49.6364C65.2421 49.5369 65.3696 49.468 65.5085 49.4374C65.6475 49.4069 65.7921 49.4159 65.9262 49.4635C66.0602 49.5111 66.1782 49.5954 66.2667 49.7067C67.2775 50.8405 67.9477 52.2366 68.2001 53.7344C68.4525 55.2323 68.2768 56.7709 67.6934 58.1733C65.6934 63.5067 59.6934 65.2267 59.6934 65.2267L57.2134 58.8133Z" fill="white"/>
<path d="M42.7867 58.8133C42.7867 58.8133 41.2534 58.8133 38.0667 55.1067C36.7298 53.6262 35.709 51.8885 35.0667 50C35.0331 49.8618 34.9614 49.7358 34.8597 49.6364C34.758 49.5369 34.6305 49.468 34.4915 49.4374C34.3526 49.4069 34.2079 49.4159 34.0739 49.4635C33.9399 49.5111 33.8219 49.5954 33.7334 49.7067C32.7226 50.8405 32.0524 52.2366 31.8 53.7344C31.5476 55.2323 31.7233 56.7709 32.3067 58.1733C34.3067 63.5067 40.3067 65.2267 40.3067 65.2267L42.7867 58.8133Z" fill="white"/>
<path d="M67.64 54.5733C65.64 59.9067 59.64 61.6267 59.64 61.6267L58.3866 58.3467C58.0346 58.5959 57.6274 58.756 57.2 58.8133L59.64 65.1867C59.64 65.1867 65.6266 63.44 67.64 58.1333C68.2657 56.5754 68.4006 54.8634 68.0266 53.2267C67.9296 53.6841 67.8004 54.1341 67.64 54.5733Z" fill="#E0E0E0"/>
<path d="M40.3466 61.6267C40.3466 61.6267 34.36 59.88 32.3466 54.5733C32.1868 54.1384 32.0576 53.6929 31.96 53.24C31.586 54.8767 31.7209 56.5887 32.3466 58.1467C34.3466 63.48 40.3466 65.2 40.3466 65.2L42.7866 58.8267C42.3592 58.7694 41.952 58.6092 41.6 58.36L40.3466 61.6267Z" fill="#E0E0E0"/>
<path d="M57.2134 58.8133C57.2134 58.8133 58.7467 58.8133 61.9334 55.1067C63.2702 53.6262 64.2911 51.8885 64.9334 50C64.967 49.8618 65.0387 49.7358 65.1404 49.6364C65.2421 49.5369 65.3696 49.468 65.5085 49.4374C65.6475 49.4069 65.7921 49.4159 65.9262 49.4635C66.0602 49.5111 66.1782 49.5954 66.2667 49.7067C67.2775 50.8405 67.9477 52.2366 68.2001 53.7344C68.4525 55.2323 68.2768 56.7709 67.6934 58.1733C65.6934 63.5067 59.6934 65.2267 59.6934 65.2267L57.2134 58.8133Z" stroke="#45413C" stroke-linecap="round" stroke-linejoin="round"/>
<path d="M42.7867 58.8133C42.7867 58.8133 41.2534 58.8133 38.0667 55.1067C36.7298 53.6262 35.709 51.8885 35.0667 50C35.0331 49.8618 34.9614 49.7358 34.8597 49.6364C34.758 49.5369 34.6305 49.468 34.4915 49.4374C34.3526 49.4069 34.2079 49.4159 34.0739 49.4635C33.9399 49.5111 33.8219 49.5954 33.7334 49.7067C32.7226 50.8405 32.0524 52.2366 31.8 53.7344C31.5476 55.2323 31.7233 56.7709 32.3067 58.1733C34.3067 63.5067 40.3067 65.2267 40.3067 65.2267L42.7867 58.8133Z" stroke="#45413C" stroke-linecap="round" stroke-linejoin="round"/>
<path d="M41.4934 45.64C41.496 45.9385 41.4099 46.2311 41.246 46.4807C41.082 46.7302 40.8477 46.9254 40.5726 47.0414C40.2975 47.1575 39.9942 47.1893 39.701 47.1327C39.4079 47.076 39.1382 46.9336 38.9261 46.7234C38.7141 46.5133 38.5693 46.2448 38.51 45.9522C38.4508 45.6596 38.4799 45.356 38.5935 45.0799C38.7071 44.8038 38.9002 44.5677 39.1483 44.4015C39.3963 44.2354 39.6882 44.1467 39.9867 44.1467C40.1839 44.1449 40.3796 44.1822 40.5623 44.2565C40.745 44.3307 40.9112 44.4405 41.0513 44.5793C41.1914 44.7182 41.3026 44.8834 41.3784 45.0654C41.4543 45.2475 41.4934 45.4428 41.4934 45.64Z" fill="#45413C" stroke="#45413C" stroke-linecap="round" stroke-linejoin="round"/>
<path d="M61.5067 45.64C61.5093 45.9391 61.4229 46.2322 61.2583 46.482C61.0938 46.7318 60.8586 46.927 60.5828 47.0427C60.3069 47.1584 60.0029 47.1893 59.7094 47.1316C59.4159 47.0739 59.1462 46.9302 58.9347 46.7186C58.7232 46.5071 58.5794 46.2375 58.5217 45.944C58.464 45.6505 58.495 45.3464 58.6106 45.0706C58.7263 44.7947 58.9215 44.5596 59.1713 44.395C59.4211 44.2305 59.7142 44.144 60.0133 44.1467C60.4094 44.1467 60.7892 44.304 61.0693 44.5841C61.3493 44.8641 61.5067 45.2439 61.5067 45.64Z" fill="#45413C" stroke="#45413C" stroke-linecap="round" stroke-linejoin="round"/>
<path d="M60.0134 63.4267C60.0134 67.2933 55.5334 67.8133 50 67.8133C44.4667 67.8133 39.9867 67.2933 39.9867 63.4267C39.9867 59.56 44.4667 52.1733 50 52.1733C55.5334 52.1733 60.0134 59.56 60.0134 63.4267Z" fill="#FFA694"/>
<path d="M50 55.1733C54.8134 55.1733 58.8267 60.76 59.7867 64.7733C59.9403 64.3457 60.017 63.8943 60.0134 63.44C60.0134 59.5733 55.5334 52.1867 50 52.1867C44.4667 52.1867 39.9867 59.5733 39.9867 63.44C39.9831 63.8943 40.0598 64.3457 40.2134 64.7733C41.1734 60.76 45.1867 55.1733 50 55.1733Z" fill="#FFCABF"/>
<path d="M60.0134 63.4267C60.0134 67.2933 55.5334 67.8133 50 67.8133C44.4667 67.8133 39.9867 67.2933 39.9867 63.4267C39.9867 59.56 44.4667 52.1733 50 52.1733C55.5334 52.1733 60.0134 59.56 60.0134 63.4267Z" stroke="#45413C" stroke-linecap="round" stroke-linejoin="round"/>
<path d="M47.6667 61.1067C48.12 62.52 47.76 63.8933 46.8667 64.1733C45.9734 64.4533 44.8934 63.5467 44.4534 62.1333C44.0134 60.72 44.36 59.36 45.2534 59.08C46.1467 58.8 47.2267 59.7067 47.6667 61.1067Z" fill="#FF866E" stroke="#45413C" stroke-linecap="round" stroke-linejoin="round"/>
<path d="M52.3334 61.1067C51.88 62.52 52.24 63.8933 53.1334 64.1733C54.0267 64.4533 55.1067 63.5467 55.5467 62.1333C55.9867 60.72 55.64 59.36 54.7467 59.08C53.8534 58.8 52.7734 59.7067 52.3334 61.1067Z" fill="#FF866E" stroke="#45413C" stroke-linecap="round" stroke-linejoin="round"/>
<path opacity="0.15" d="M33.48 78.4133C33.48 79.011 35.2205 79.5841 38.3186 80.0067C41.4167 80.4293 45.6186 80.6667 50 80.6667C54.3814 80.6667 58.5833 80.4293 61.6814 80.0067C64.7795 79.5841 66.52 79.011 66.52 78.4133C66.52 77.8157 64.7795 77.2426 61.6814 76.82C58.5833 76.3974 54.3814 76.16 50 76.16C45.6186 76.16 41.4167 76.3974 38.3186 76.82C35.2205 77.2426 33.48 77.8157 33.48 78.4133Z" fill="#45413C"/>
</svg>
