<svg width="100" height="100" viewBox="0 0 100 100" fill="none" xmlns="http://www.w3.org/2000/svg">
<rect width="100" height="100" fill="#DDF8C8"/>
<path d="M45.8 25.44C46.4355 25.4435 47.0439 25.6975 47.4932 26.1468C47.9425 26.5961 48.1965 27.2046 48.2 27.84V32.6667H45.2L43.5734 28.76C43.4217 28.3945 43.3627 27.9973 43.4017 27.6035C43.4407 27.2098 43.5764 26.8318 43.7968 26.5032C44.0172 26.1745 44.3154 25.9055 44.6649 25.72C45.0144 25.5345 45.4044 25.4383 45.8 25.44Z" fill="#FF87AF" stroke="#45413C" stroke-linecap="round" stroke-linejoin="round"/>
<path d="M54.2 25.44C54.5957 25.4383 54.9857 25.5345 55.3352 25.72C55.6847 25.9055 55.9829 26.1745 56.2033 26.5032C56.4237 26.8318 56.5594 27.2098 56.5984 27.6035C56.6374 27.9973 56.5784 28.3945 56.4267 28.76L54.8 32.6667H51.8V27.84C51.8035 27.2046 52.0575 26.5961 52.5069 26.1468C52.9562 25.6975 53.5646 25.4435 54.2 25.44Z" fill="#FF87AF" stroke="#45413C" stroke-linecap="round" stroke-linejoin="round"/>
<path d="M50.0001 24.84C50.4434 24.8419 50.881 24.94 51.2828 25.1273C51.6846 25.3147 52.041 25.587 52.3274 25.9254C52.6138 26.2637 52.8235 26.6602 52.9419 27.0874C53.0603 27.5146 53.0847 27.9624 53.0134 28.4L52.4001 32.0533H47.6001L46.9867 28.4C46.9154 27.9624 46.9398 27.5146 47.0582 27.0874C47.1767 26.6602 47.3863 26.2637 47.6727 25.9254C47.9591 25.587 48.3155 25.3147 48.7173 25.1273C49.1191 24.94 49.5567 24.8419 50.0001 24.84Z" fill="#FF87AF" stroke="#45413C" stroke-linecap="round" stroke-linejoin="round"/>
<path d="M34.2934 53.16C34.433 52.4378 34.433 51.6955 34.2934 50.9733C33.8997 49.4773 32.9446 48.1906 31.6266 47.3807C30.3087 46.5707 28.7293 46.2998 27.2167 46.6243C25.7042 46.9488 24.3749 47.8436 23.5052 49.1229C22.6354 50.4022 22.2922 51.9675 22.5467 53.4933C23.0556 55.7989 24.2219 57.9076 25.9044 59.564C27.5869 61.2205 29.7135 62.3538 32.0267 62.8267C43.7334 65.68 42.8267 64.04 42.8267 64.04L34.2934 53.16Z" fill="#6DD627"/>
<path d="M22.6933 54.2533C23.1184 53.1674 23.8125 52.2074 24.7104 51.4634C25.6084 50.7194 26.6807 50.2158 27.8267 50C28.9907 49.7245 30.2064 49.7567 31.3542 50.0933C32.502 50.4299 33.5425 51.0595 34.3733 51.92C34.3529 51.6243 34.3129 51.3303 34.2533 51.04C33.8596 49.544 32.9045 48.2573 31.5866 47.4473C30.2686 46.6373 28.6892 46.3664 27.1767 46.6909C25.6642 47.0154 24.3349 47.9103 23.4651 49.1896C22.5954 50.4689 22.2521 52.0341 22.5067 53.56C22.56 53.7467 22.6267 54 22.6933 54.2533Z" fill="#9CEB60"/>
<path d="M34.2934 53.16C34.433 52.4378 34.433 51.6955 34.2934 50.9733C33.8997 49.4773 32.9446 48.1906 31.6266 47.3807C30.3087 46.5707 28.7293 46.2998 27.2167 46.6243C25.7042 46.9488 24.3749 47.8436 23.5052 49.1229C22.6354 50.4022 22.2922 51.9675 22.5467 53.4933C23.0556 55.7989 24.2219 57.9076 25.9044 59.564C27.5869 61.2205 29.7135 62.3538 32.0267 62.8267C43.7334 65.68 42.8267 64.04 42.8267 64.04L34.2934 53.16Z" stroke="#45413C" stroke-linecap="round" stroke-linejoin="round"/>
<path d="M72.84 41.68C71.1915 41.5662 69.5649 42.1095 68.3157 43.1913C67.0665 44.2731 66.2963 45.8054 66.1734 47.4533V47.9333L62.0934 57.2667C62.0934 57.2667 64.5867 59.5867 69.7067 58.8C75.4134 57.9467 78.4134 52.2 78.7067 48.36C78.7646 47.5352 78.6583 46.7072 78.3941 45.9237C78.1298 45.1403 77.7129 44.417 77.1673 43.7958C76.6217 43.1746 75.9583 42.6677 75.2156 42.3045C74.4728 41.9414 73.6654 41.7291 72.84 41.68Z" fill="#6DD627"/>
<path d="M72.04 45.2667C73.3914 45.3254 74.7021 45.7462 75.835 46.4851C76.9679 47.2239 77.8815 48.2537 78.48 49.4667C78.48 49.0933 78.6 48.7333 78.6267 48.3867C78.7415 46.7598 78.2176 45.1523 77.1662 43.9055C76.1148 42.6587 74.6188 41.871 72.9958 41.7095C71.3729 41.5481 69.751 42.0257 68.4746 43.041C67.1982 44.0562 66.3679 45.5291 66.16 47.1467C66.964 46.455 67.8988 45.9321 68.909 45.6091C69.9191 45.2861 70.9839 45.1697 72.04 45.2667Z" fill="#9CEB60"/>
<path d="M72.84 41.68C71.1915 41.5662 69.5649 42.1095 68.3157 43.1913C67.0665 44.2731 66.2963 45.8054 66.1734 47.4533V47.9333L62.0934 57.2667C62.0934 57.2667 64.5867 59.5867 69.7067 58.8C75.4134 57.9467 78.4134 52.2 78.7067 48.36C78.7646 47.5352 78.6583 46.7072 78.3941 45.9237C78.1298 45.1403 77.7129 44.417 77.1673 43.7958C76.6217 43.1746 75.9583 42.6677 75.2156 42.3045C74.4728 41.9414 73.6654 41.7291 72.84 41.68Z" stroke="#45413C" stroke-linecap="round" stroke-linejoin="round"/>
<path opacity="0.15" d="M34.6666 78.6667C34.6666 78.9293 35.0632 79.1894 35.8338 79.432C36.6044 79.6747 37.7338 79.8952 39.1577 80.0809C40.5815 80.2666 42.2718 80.4139 44.1321 80.5144C45.9925 80.6149 47.9864 80.6667 50 80.6667C52.0136 80.6667 54.0074 80.6149 55.8678 80.5144C57.7281 80.4139 59.4184 80.2666 60.8423 80.0809C62.2661 79.8952 63.3955 79.6747 64.1661 79.432C64.9367 79.1894 65.3333 78.9293 65.3333 78.6667C65.3333 78.404 64.9367 78.1439 64.1661 77.9013C63.3955 77.6586 62.2661 77.4382 60.8423 77.2524C59.4184 77.0667 57.7281 76.9194 55.8678 76.8189C54.0074 76.7184 52.0136 76.6667 50 76.6667C47.9864 76.6667 45.9925 76.7184 44.1321 76.8189C42.2718 76.9194 40.5815 77.0667 39.1577 77.2524C37.7338 77.4382 36.6044 77.6586 35.8338 77.9013C35.0632 78.1439 34.6666 78.404 34.6666 78.6667Z" fill="#45413C"/>
<path d="M50 30.84C47.6671 30.8605 45.3616 31.3452 43.218 32.2661C41.0744 33.1869 39.1357 34.5253 37.5148 36.2033C35.8939 37.8813 34.6233 39.8652 33.7772 42.0394C32.9311 44.2136 32.5264 46.5344 32.5867 48.8667C32.5867 55.6133 35.5467 64.3867 37.5067 69.4267C38.4563 71.9739 40.162 74.1701 42.3949 75.7207C44.6279 77.2713 47.2815 78.1023 50 78.1023C52.7186 78.1023 55.3721 77.2713 57.6051 75.7207C59.8381 74.1701 61.5437 71.9739 62.4933 69.4267C64.4533 64.3867 67.4133 55.6133 67.4133 48.8667C67.4736 46.5344 67.0689 44.2136 66.2228 42.0394C65.3767 39.8652 64.1061 37.8813 62.4853 36.2033C60.8644 34.5253 58.9256 33.1869 56.782 32.2661C54.6384 31.3452 52.3329 30.8605 50 30.84Z" fill="#6DD627"/>
<path d="M50 37C54.218 37.0307 58.2829 38.5845 61.446 41.3751C64.609 44.1658 66.6572 48.0053 67.2133 52.1867C67.344 51.0848 67.4108 49.9763 67.4133 48.8667C67.4682 46.5358 67.0598 44.2173 66.2117 42.0455C65.3636 39.8738 64.0929 37.892 62.473 36.2151C60.8532 34.5382 58.9166 33.1996 56.7755 32.2769C54.6343 31.3542 52.3313 30.8658 50 30.84C47.6671 30.8605 45.3616 31.3452 43.218 32.2661C41.0744 33.1869 39.1357 34.5253 37.5148 36.2033C35.8939 37.8813 34.6233 39.8652 33.7772 42.0394C32.9311 44.2136 32.5264 46.5344 32.5867 48.8667C32.5892 49.9763 32.656 51.0848 32.7867 52.1867C33.3293 47.9996 35.3736 44.152 38.5396 41.3588C41.7056 38.5655 45.778 37.0167 50 37Z" fill="#9CEB60"/>
<path d="M50 30.84C47.6671 30.8605 45.3616 31.3452 43.218 32.2661C41.0744 33.1869 39.1357 34.5253 37.5148 36.2033C35.8939 37.8813 34.6233 39.8652 33.7772 42.0394C32.9311 44.2136 32.5264 46.5344 32.5867 48.8667C32.5867 55.6133 35.5467 64.3867 37.5067 69.4267C38.4563 71.9739 40.162 74.1701 42.3949 75.7207C44.6279 77.2713 47.2815 78.1023 50 78.1023C52.7186 78.1023 55.3721 77.2713 57.6051 75.7207C59.8381 74.1701 61.5437 71.9739 62.4933 69.4267C64.4533 64.3867 67.4133 55.6133 67.4133 48.8667C67.4736 46.5344 67.0689 44.2136 66.2228 42.0394C65.3767 39.8652 64.1061 37.8813 62.4853 36.2033C60.8644 34.5253 58.9256 33.1869 56.782 32.2661C54.6384 31.3452 52.3329 30.8605 50 30.84Z" stroke="#45413C" stroke-linecap="round" stroke-linejoin="round"/>
<path d="M49.9999 60.88C49.3386 60.8837 48.6996 60.6415 48.2068 60.2004C47.714 59.7594 47.4027 59.151 47.3333 58.4933L47.0533 54.92C47.0459 54.8368 47.0559 54.753 47.0827 54.674C47.1095 54.5949 47.1525 54.5223 47.209 54.4608C47.2655 54.3993 47.3341 54.3503 47.4106 54.3169C47.4872 54.2834 47.5698 54.2663 47.6533 54.2667H52.3466C52.4301 54.2663 52.5127 54.2834 52.5892 54.3169C52.6657 54.3503 52.7344 54.3993 52.7909 54.4608C52.8474 54.5223 52.8904 54.5949 52.9172 54.674C52.944 54.753 52.954 54.8368 52.9466 54.92L52.6666 58.4933C52.5972 59.151 52.2859 59.7594 51.7931 60.2004C51.3003 60.6415 50.6612 60.8837 49.9999 60.88Z" fill="#FF866E" stroke="#45413C" stroke-linecap="round" stroke-linejoin="round"/>
<path d="M40.5601 47.6667C40.5601 48.1441 40.7497 48.6019 41.0873 48.9395C41.4248 49.277 41.8827 49.4667 42.3601 49.4667C42.8374 49.4667 43.2953 49.277 43.6328 48.9395C43.9704 48.6019 44.1601 48.1441 44.1601 47.6667C44.1601 47.1893 43.9704 46.7314 43.6328 46.3939C43.2953 46.0563 42.8374 45.8667 42.3601 45.8667C41.8827 45.8667 41.4248 46.0563 41.0873 46.3939C40.7497 46.7314 40.5601 47.1893 40.5601 47.6667Z" fill="#45413C" stroke="#45413C" stroke-linecap="round" stroke-linejoin="round"/>
<path d="M55.84 47.6667C55.84 47.903 55.8865 48.1371 55.977 48.3555C56.0674 48.5739 56.2 48.7723 56.3672 48.9395C56.5343 49.1066 56.7327 49.2392 56.9511 49.3297C57.1695 49.4201 57.4036 49.4667 57.64 49.4667C57.8763 49.4667 58.1104 49.4201 58.3288 49.3297C58.5472 49.2392 58.7456 49.1066 58.9128 48.9395C59.0799 48.7723 59.2125 48.5739 59.3029 48.3555C59.3934 48.1371 59.44 47.903 59.44 47.6667C59.44 47.1893 59.2503 46.7314 58.9128 46.3939C58.5752 46.0563 58.1174 45.8667 57.64 45.8667C57.1626 45.8667 56.7047 46.0563 56.3672 46.3939C56.0296 46.7314 55.84 47.1893 55.84 47.6667Z" fill="#45413C" stroke="#45413C" stroke-linecap="round" stroke-linejoin="round"/>
<path d="M42.36 54C42.36 54.72 41.3733 55.3333 40.1733 55.3333C38.9733 55.3333 38 54.7333 38 54C38 53.2667 38.9733 52.6667 40.1867 52.6667C41.4 52.6667 42.36 53.3067 42.36 54Z" fill="#C8FFA1"/>
<path d="M57.64 54C57.64 54.72 58.6267 55.3333 59.8267 55.3333C61.0267 55.3333 62 54.7333 62 54C62 53.2667 61.0267 52.6667 59.8133 52.6667C58.6 52.6667 57.64 53.3067 57.64 54Z" fill="#C8FFA1"/>
<path d="M48.8666 25.0533L48.2 23.04" stroke="#45413C" stroke-linecap="round" stroke-linejoin="round"/>
<path d="M51.1333 25.0533L51.8 23.04" stroke="#45413C" stroke-linecap="round" stroke-linejoin="round"/>
<path d="M39.3067 34.56L37.3867 32.6533" stroke="#45413C" stroke-linecap="round" stroke-linejoin="round"/>
<path d="M34.2667 41.0267L31.9867 40.4533" stroke="#45413C" stroke-linecap="round" stroke-linejoin="round"/>
<path d="M60.3199 34.2933L62.0133 32.0533" stroke="#45413C" stroke-linecap="round" stroke-linejoin="round"/>
<path d="M64.8533 39.3733L66.8133 38.0533" stroke="#45413C" stroke-linecap="round" stroke-linejoin="round"/>
<path d="M73.96 41.8667L74.6266 39.8533" stroke="#45413C" stroke-linecap="round" stroke-linejoin="round"/>
<path d="M78.64 47.9333L81.24 47.0667" stroke="#45413C" stroke-linecap="round" stroke-linejoin="round"/>
<path d="M76.2134 54.6533L78.2267 56.68" stroke="#45413C" stroke-linecap="round" stroke-linejoin="round"/>
<path d="M68.3867 58.96L69.2267 61.48" stroke="#45413C" stroke-linecap="round" stroke-linejoin="round"/>
<path d="M27.8667 46.24L27.1733 43.4533" stroke="#45413C" stroke-linecap="round" stroke-linejoin="round"/>
<path d="M22.5467 50.7867L20.5734 49.4667" stroke="#45413C" stroke-linecap="round" stroke-linejoin="round"/>
<path d="M25.9733 59.68L24.1733 61.48" stroke="#45413C" stroke-linecap="round" stroke-linejoin="round"/>
<path d="M32.52 62.9333L31.9867 65.08" stroke="#45413C" stroke-linecap="round" stroke-linejoin="round"/>
<path d="M37.44 69.2667L35.5867 69.8933" stroke="#45413C" stroke-linecap="round" stroke-linejoin="round"/>
<path d="M63.6801 66.2L65.6134 67.48" stroke="#45413C" stroke-linecap="round" stroke-linejoin="round"/>
<path d="M71.6267 48.2667L72.8267 46.4667" stroke="#45413C" stroke-linecap="round" stroke-linejoin="round"/>
<path d="M71.0266 53.0667L72.8266 52.4667" stroke="#45413C" stroke-linecap="round" stroke-linejoin="round"/>
<path d="M30.1733 55.4667L27.7733 54.2667" stroke="#45413C" stroke-linecap="round" stroke-linejoin="round"/>
<path d="M56 38.6533L56.6133 36.2533" stroke="#45413C" stroke-linecap="round" stroke-linejoin="round"/>
<path d="M45.2 38.0533L44.6 36.2533" stroke="#45413C" stroke-linecap="round" stroke-linejoin="round"/>
<path d="M59.6133 65.08L61.4133 63.88" stroke="#45413C" stroke-linecap="round" stroke-linejoin="round"/>
<path d="M41.5866 64.48L39.7866 63.28" stroke="#45413C" stroke-linecap="round" stroke-linejoin="round"/>
<path d="M54.8 67.48L55.4001 65.68" stroke="#45413C" stroke-linecap="round" stroke-linejoin="round"/>
</svg>
