<svg width="100" height="100" viewBox="0 0 100 100" fill="none" xmlns="http://www.w3.org/2000/svg">
<rect width="100" height="100" fill="#FFDFEA"/>
<path d="M27.2 33.7867C23.5067 39.2667 24.44 42.72 28.5333 45.52C34.56 49.6533 35.2 41.52 38.12 37.44C41.04 33.36 44.36 30.4533 41.5733 28.4533C38.7867 26.4533 31.5067 27.3333 27.2 33.7867Z" fill="#FFB0CA"/>
<path d="M27.2 37.84C31.5067 31.44 38.7867 30.52 41.5734 32.5067L41.72 32.6C42.8 30.9067 43.12 29.5467 41.5734 28.44C38.7867 26.4533 31.5067 27.36 27.2 33.7733C24.9867 37.0533 24.44 39.6133 25.2267 41.7733C25.6919 40.3742 26.3566 39.0494 27.2 37.84Z" fill="#FFCCDD"/>
<path d="M27.2 33.7867C23.5067 39.2667 24.44 42.72 28.5333 45.52C34.56 49.6533 35.2 41.52 38.12 37.44C41.04 33.36 44.36 30.4533 41.5733 28.4533C38.7867 26.4533 31.5067 27.3333 27.2 33.7867Z" stroke="#45413C" stroke-linecap="round" stroke-linejoin="round"/>
<path d="M72.8 33.7867C76.4933 39.2667 75.56 42.72 71.4667 45.52C65.44 49.6533 64.8 41.52 61.88 37.44C58.96 33.36 55.64 30.4533 58.4267 28.4533C61.2133 26.4533 68.4933 27.3333 72.8 33.7867Z" fill="#FFB0CA"/>
<path d="M72.8 37.84C68.4934 31.44 61.2134 30.52 58.4267 32.5067L58.28 32.6C57.2 30.9067 56.88 29.5467 58.4267 28.44C61.2134 26.4533 68.4934 27.36 72.8 33.7733C75.0134 37.0533 75.56 39.6133 74.7734 41.7733C74.3081 40.3742 73.6435 39.0494 72.8 37.84Z" fill="#FFCCDD"/>
<path d="M72.8 33.7867C76.4933 39.2667 75.56 42.72 71.4667 45.52C65.44 49.6533 64.8 41.52 61.88 37.44C58.96 33.36 55.64 30.4533 58.4267 28.4533C61.2133 26.4533 68.4933 27.3333 72.8 33.7867Z" stroke="#45413C" stroke-linecap="round" stroke-linejoin="round"/>
<path opacity="0.15" d="M34.6666 77.32C34.6666 77.5827 35.0632 77.8427 35.8338 78.0854C36.6044 78.328 37.7338 78.5485 39.1577 78.7342C40.5815 78.9199 42.2718 79.0673 44.1321 79.1678C45.9925 79.2683 47.9864 79.32 50 79.32C52.0136 79.32 54.0074 79.2683 55.8678 79.1678C57.7281 79.0673 59.4184 78.9199 60.8423 78.7342C62.2661 78.5485 63.3955 78.328 64.1661 78.0854C64.9367 77.8427 65.3333 77.5827 65.3333 77.32C65.3333 77.0574 64.9367 76.7973 64.1661 76.5546C63.3955 76.312 62.2661 76.0915 60.8423 75.9058C59.4184 75.7201 57.7281 75.5728 55.8678 75.4723C54.0074 75.3717 52.0136 75.32 50 75.32C47.9864 75.32 45.9925 75.3717 44.1321 75.4723C42.2718 75.5728 40.5815 75.7201 39.1577 75.9058C37.7338 76.0915 36.6044 76.312 35.8338 76.5546C35.0632 76.7973 34.6666 77.0574 34.6666 77.32Z" fill="#45413C"/>
<path d="M57.32 29.36C52.5069 28.142 47.4663 28.142 42.6533 29.36C35.1466 31.3333 30 37.12 30 43.76V49.56C29.9895 50.1477 29.7935 50.7171 29.44 51.1867C28.2977 53.0316 27.7919 55.2001 28 57.36C28 65.44 37.48 72.0267 50 72.0267C62.52 72.0267 72 65.4667 72 57.36C72.2081 55.2001 71.7022 53.0316 70.56 51.1867C70.2064 50.7171 70.0104 50.1477 70 49.56V43.76C70 37.12 64.8533 31.3333 57.32 29.36Z" fill="#FFB0CA"/>
<path d="M42.68 33.8267C47.493 32.6087 52.5336 32.6087 57.3467 33.8267C64.8533 35.7333 70 41.5733 70 48.2133V43.76C70 37.0933 64.8533 31.2667 57.32 29.36C52.507 28.142 47.4664 28.142 42.6533 29.36C35.1467 31.3333 30 37.12 30 43.76V48.2133C30 41.5733 35.1467 35.7333 42.68 33.8267Z" fill="#FFCCDD"/>
<path d="M57.32 29.36C52.5069 28.142 47.4663 28.142 42.6533 29.36C35.1466 31.3333 30 37.12 30 43.76V49.56C29.9895 50.1477 29.7935 50.7171 29.44 51.1867C28.2977 53.0316 27.7919 55.2001 28 57.36C28 65.44 37.48 72.0267 50 72.0267C62.52 72.0267 72 65.4667 72 57.36C72.2081 55.2001 71.7022 53.0316 70.56 51.1867C70.2064 50.7171 70.0104 50.1477 70 49.56V43.76C70 37.12 64.8533 31.3333 57.32 29.36Z" stroke="#45413C" stroke-linecap="round" stroke-linejoin="round"/>
<path d="M58 57.92C58 60.5867 54.4133 62.6667 50 62.6667C45.5867 62.6667 42 60.5467 42 57.92C42 55.2933 45.5867 52 50 52C54.4133 52 58 55.3333 58 57.92Z" fill="#FFE5EE"/>
<path d="M50 54.6667C51.5773 54.6393 53.1313 55.0498 54.4894 55.8524C55.8475 56.655 56.9566 57.8184 57.6933 59.2133C57.8992 58.7993 58.0043 58.3424 58 57.88C58 55.2133 54.4133 51.96 50 51.96C45.5867 51.96 42 55.3333 42 57.92C41.9957 58.3824 42.1008 58.8393 42.3067 59.2533C43.038 57.8509 44.1447 56.6794 45.5032 55.8695C46.8617 55.0595 48.4186 54.6431 50 54.6667Z" fill="white"/>
<path d="M58 57.92C58 60.5867 54.4133 62.6667 50 62.6667C45.5867 62.6667 42 60.5467 42 57.92C42 55.2933 45.5867 52 50 52C54.4133 52 58 55.3333 58 57.92Z" stroke="#45413C" stroke-linecap="round" stroke-linejoin="round"/>
<path d="M58.6666 47.3333C58.6666 47.8638 58.8773 48.3725 59.2524 48.7476C59.6275 49.1226 60.1362 49.3333 60.6666 49.3333C61.1971 49.3333 61.7058 49.1226 62.0808 48.7476C62.4559 48.3725 62.6666 47.8638 62.6666 47.3333C62.6666 46.8029 62.4559 46.2942 62.0808 45.9191C61.7058 45.5441 61.1971 45.3333 60.6666 45.3333C60.1362 45.3333 59.6275 45.5441 59.2524 45.9191C58.8773 46.2942 58.6666 46.8029 58.6666 47.3333Z" fill="#45413C" stroke="#45413C" stroke-linecap="round" stroke-linejoin="round"/>
<path d="M37.3334 47.3333C37.3334 47.8638 37.5441 48.3725 37.9192 48.7476C38.2942 49.1226 38.8029 49.3333 39.3334 49.3333C39.8638 49.3333 40.3725 49.1226 40.7476 48.7476C41.1227 48.3725 41.3334 47.8638 41.3334 47.3333C41.3334 46.8029 41.1227 46.2942 40.7476 45.9191C40.3725 45.5441 39.8638 45.3333 39.3334 45.3333C38.8029 45.3333 38.2942 45.5441 37.9192 45.9191C37.5441 46.2942 37.3334 46.8029 37.3334 47.3333Z" fill="#45413C" stroke="#45413C" stroke-linecap="round" stroke-linejoin="round"/>
<path d="M69.52 55.5733C69.52 56.3067 68.4266 56.9067 67.0933 56.9067C65.76 56.9067 64.6666 56.3067 64.6666 55.5733C64.6666 54.84 65.7466 54.24 67.0933 54.24C68.44 54.24 69.52 54.84 69.52 55.5733Z" fill="#FF6196"/>
<path d="M35.3333 55.5733C35.3333 56.3067 34.2533 56.9067 32.9066 56.9067C31.56 56.9067 30.48 56.3067 30.48 55.5733C30.48 54.84 31.5733 54.24 32.9066 54.24C34.24 54.24 35.3333 54.84 35.3333 55.5733Z" fill="#FF6196"/>
<path d="M45.3334 57.6667C45.3334 58.1087 45.4738 58.5326 45.7239 58.8452C45.9739 59.1577 46.3131 59.3333 46.6667 59.3333C47.0203 59.3333 47.3595 59.1577 47.6095 58.8452C47.8596 58.5326 48 58.1087 48 57.6667C48 57.2246 47.8596 56.8007 47.6095 56.4882C47.3595 56.1756 47.0203 56 46.6667 56C46.3131 56 45.9739 56.1756 45.7239 56.4882C45.4738 56.8007 45.3334 57.2246 45.3334 57.6667Z" fill="#FF87AF" stroke="#45413C" stroke-linecap="round" stroke-linejoin="round"/>
<path d="M52 57.6667C52 58.1087 52.1405 58.5326 52.3905 58.8452C52.6406 59.1577 52.9797 59.3333 53.3333 59.3333C53.687 59.3333 54.0261 59.1577 54.2761 58.8452C54.5262 58.5326 54.6667 58.1087 54.6667 57.6667C54.6667 57.2246 54.5262 56.8007 54.2761 56.4882C54.0261 56.1756 53.687 56 53.3333 56C52.9797 56 52.6406 56.1756 52.3905 56.4882C52.1405 56.8007 52 57.2246 52 57.6667Z" fill="#FF87AF" stroke="#45413C" stroke-linecap="round" stroke-linejoin="round"/>
</svg>
