<svg width="32" height="32" viewBox="0 0 32 32" fill="none" xmlns="http://www.w3.org/2000/svg">
<path d="M9.6134 17.921C10.2672 19.1261 12.0422 21.6242 16.817 25.4494C17.1932 25.75 17.5544 26.0373 17.9044 26.3104C17.6833 27.0061 17.2224 27.5345 16.6185 27.8057C15.8161 28.1658 14.8472 28.0335 14.0194 27.3785C12.9001 26.4929 11.4383 25.2632 9.60211 23.5817C6.89584 21.1034 5.40208 19.2688 4.59029 18.0741C4.21959 17.5423 4.02075 16.9087 4.02075 16.2594C4.02075 15.61 4.21959 14.9765 4.59029 14.4446C5.40208 13.2508 6.8949 11.4153 9.60211 8.93796C11.4383 7.25742 12.8991 6.02774 14.0185 5.1421C14.8463 4.48708 15.8152 4.35381 16.6185 4.71487C17.2224 4.98614 17.6833 5.5145 17.9044 6.21016C17.5544 6.48426 17.1932 6.77065 16.8179 7.07027C12.0422 10.8954 10.2672 13.3945 9.6134 14.5996C9.3361 15.1088 9.19076 15.6799 9.19076 16.2603C9.19076 16.8407 9.3361 17.4118 9.6134 17.921Z" fill="black"/>
<path fill-rule="evenodd" clip-rule="evenodd" d="M27.7681 6.62605C27.6854 5.62416 27.1586 4.8491 26.3929 4.48332C25.6281 4.11848 24.695 4.19693 23.8672 4.75648C22.5315 5.65818 20.6906 6.99184 18.2844 8.91907C15.3223 11.2915 13.6329 13.0741 12.6809 14.2688C11.7262 15.4682 11.7271 17.0533 12.6809 18.2518C13.6329 19.4465 15.3232 21.2291 18.2844 23.6016C20.6906 25.5297 22.5324 26.8634 23.8682 27.766C24.696 28.3237 25.6281 28.4031 26.3929 28.0383C27.1586 27.6734 27.6854 26.8974 27.7681 25.8965C27.8584 24.801 27.9431 23.369 28.0005 21.5136C28.0226 20.7986 28.0005 20.5316 28.0005 19.8227C28.0005 18.7216 28.0005 16.9872 28.0005 16.9872C28.0005 16.9872 28.0005 15.962 28.0005 14.1516C28.0005 12.7338 28.0578 12.7338 27.9798 10.3879C27.938 9.13247 27.8675 7.87819 27.7681 6.62605Z" fill="black"/>
</svg>
