<svg width="48" height="48" viewBox="0 0 48 48" fill="none" xmlns="http://www.w3.org/2000/svg">
<g clip-path="url(#clip0_118_8381)">
<path fill-rule="evenodd" clip-rule="evenodd" d="M21.448 0.606107C22.3205 0.206725 23.2688 0 24.2284 0C25.188 0 26.1363 0.206725 27.0088 0.606107C33.2997 3.48701 37.9872 7.60744 40.2443 9.83049C41.4611 11.0287 42.1117 12.6263 42.2032 14.275C42.315 16.306 42.4568 19.6001 42.4568 23.3155C42.4568 25.9371 42.3863 28.3481 42.3053 30.2536C42.2463 31.7175 41.6343 33.1046 40.5928 34.1351C39.5514 35.1656 38.1579 35.7629 36.6934 35.8064C33.8757 35.9036 29.688 36 24.2284 36C18.768 36 14.5811 35.9028 11.7634 35.8064C10.2989 35.7629 8.90543 35.1656 7.86396 34.1351C6.82248 33.1046 6.21052 31.7175 6.1515 30.2536C6.05247 27.9422 6.00196 25.629 6 23.3155C6 19.6001 6.14178 16.306 6.25358 14.275C6.34512 12.6263 6.99568 11.0287 8.21252 9.83049C10.4696 7.60744 15.1571 3.48701 21.448 0.606107ZM17.7472 27.4934C17.3175 27.4934 16.9053 27.6641 16.6015 27.968C16.2976 28.2719 16.1269 28.684 16.1269 29.1137C16.1269 29.5434 16.2976 29.9556 16.6015 30.2594C16.9053 30.5633 17.3175 30.734 17.7472 30.734H30.7096C31.1393 30.734 31.5515 30.5633 31.8553 30.2594C32.1592 29.9556 32.3299 29.5434 32.3299 29.1137C32.3299 28.684 32.1592 28.2719 31.8553 27.968C31.5515 27.6641 31.1393 27.4934 30.7096 27.4934H17.7472Z" fill="black"/>
<path d="M12.157 38.3H13.257V46H12.157V38.3ZM7.73498 46H6.63498V38.3H7.73498V46ZM12.256 42.568H7.62498V41.611H12.256V42.568ZM19.0377 46.088C18.4511 46.088 17.9047 45.989 17.3987 45.791C16.9001 45.593 16.4674 45.318 16.1007 44.966C15.7341 44.6067 15.4481 44.1887 15.2427 43.712C15.0374 43.2353 14.9347 42.7147 14.9347 42.15C14.9347 41.5853 15.0374 41.0647 15.2427 40.588C15.4481 40.1113 15.7341 39.697 16.1007 39.345C16.4674 38.9857 16.9001 38.707 17.3987 38.509C17.8974 38.311 18.4437 38.212 19.0377 38.212C19.6244 38.212 20.1634 38.311 20.6547 38.509C21.1534 38.6997 21.5861 38.9747 21.9527 39.334C22.3267 39.686 22.6127 40.1003 22.8107 40.577C23.0161 41.0537 23.1187 41.578 23.1187 42.15C23.1187 42.722 23.0161 43.2463 22.8107 43.723C22.6127 44.1997 22.3267 44.6177 21.9527 44.977C21.5861 45.329 21.1534 45.604 20.6547 45.802C20.1634 45.9927 19.6244 46.088 19.0377 46.088ZM19.0377 45.109C19.4631 45.109 19.8554 45.0357 20.2147 44.889C20.5814 44.7423 20.8967 44.537 21.1607 44.273C21.4321 44.0017 21.6411 43.6863 21.7877 43.327C21.9417 42.9677 22.0187 42.5753 22.0187 42.15C22.0187 41.7247 21.9417 41.3323 21.7877 40.973C21.6411 40.6137 21.4321 40.302 21.1607 40.038C20.8967 39.7667 20.5814 39.5577 20.2147 39.411C19.8554 39.2643 19.4631 39.191 19.0377 39.191C18.6051 39.191 18.2054 39.2643 17.8387 39.411C17.4794 39.5577 17.1641 39.7667 16.8927 40.038C16.6214 40.302 16.4087 40.6137 16.2547 40.973C16.1081 41.3323 16.0347 41.7247 16.0347 42.15C16.0347 42.5753 16.1081 42.9677 16.2547 43.327C16.4087 43.6863 16.6214 44.0017 16.8927 44.273C17.1641 44.537 17.4794 44.7423 17.8387 44.889C18.2054 45.0357 18.6051 45.109 19.0377 45.109ZM24.8 46V38.3H25.702L29.156 44.119H28.672L32.082 38.3H32.984L32.995 46H31.939L31.928 39.961H32.181L29.145 45.065H28.639L25.581 39.961H25.856V46H24.8ZM36.3069 41.622H40.2669V42.557H36.3069V41.622ZM36.4059 45.043H40.8939V46H35.3059V38.3H40.7399V39.257H36.4059V45.043Z" fill="black"/>
</g>
<defs>
<clipPath id="clip0_118_8381">
<rect width="48" height="48" fill="white"/>
</clipPath>
</defs>
</svg>
