<svg width="24" height="24" viewBox="0 0 24 24" fill="none" xmlns="http://www.w3.org/2000/svg">
<path fill-rule="evenodd" clip-rule="evenodd" d="M12 0.214286C10.3328 0.214286 8.73384 0.876589 7.55493 2.0555C6.37602 3.2344 5.71372 4.83334 5.71372 6.50057V8.42743C4.81127 8.85852 4.03268 9.51112 3.45054 10.3244C2.86841 11.1376 2.50169 12.085 2.38458 13.0783C2.28515 13.956 2.21315 14.8611 2.21315 15.7869C2.21315 16.7109 2.28515 17.616 2.38458 18.492C2.5508 19.8933 3.21148 21.1894 4.24783 22.1472C5.28418 23.105 6.62822 23.6617 8.03829 23.7171C10.6786 23.811 13.3214 23.811 15.9617 23.7171C17.3718 23.6617 18.7158 23.105 19.7522 22.1472C20.7885 21.1894 21.4492 19.8933 21.6154 18.492C21.7149 17.616 21.7869 16.7091 21.7869 15.7851C21.7869 14.8594 21.7149 13.956 21.6154 13.0783C21.4492 11.6769 20.7885 10.3809 19.7522 9.42308C18.7158 8.46529 17.3718 7.90861 15.9617 7.85314C14.6417 7.8067 13.3209 7.78383 12 7.78457C10.692 7.78457 9.47315 7.80514 8.28515 7.84457V6.50057C8.28535 5.76599 8.50334 5.04796 8.91154 4.43725C9.31975 3.82653 9.89986 3.35055 10.5785 3.06946C11.2572 2.78838 12.004 2.71481 12.7245 2.85807C13.4449 3.00132 14.1068 3.35496 14.6263 3.87429C14.745 3.99703 14.8869 4.09491 15.0438 4.16222C15.2007 4.22952 15.3694 4.26491 15.5401 4.26631C15.7108 4.26772 15.8801 4.23511 16.0381 4.17038C16.1961 4.10566 16.3396 4.01013 16.4602 3.88935C16.5809 3.76858 16.6763 3.62498 16.7409 3.46694C16.8054 3.3089 16.8379 3.13958 16.8363 2.96887C16.8348 2.79815 16.7992 2.62946 16.7318 2.47263C16.6643 2.3158 16.5663 2.17397 16.4434 2.05543C15.2649 0.87695 13.6667 0.214705 12 0.214286ZM12 13.6423C12.341 13.6423 12.668 13.7777 12.9091 14.0189C13.1503 14.26 13.2857 14.587 13.2857 14.928V16.6423C13.2857 16.9833 13.1503 17.3103 12.9091 17.5514C12.668 17.7925 12.341 17.928 12 17.928C11.659 17.928 11.332 17.7925 11.0909 17.5514C10.8498 17.3103 10.7143 16.9833 10.7143 16.6423V14.928C10.7143 14.587 10.8498 14.26 11.0909 14.0189C11.332 13.7777 11.659 13.6423 12 13.6423Z" fill="black"/>
</svg>
