<svg width="18" height="18" viewBox="0 0 18 18" fill="none" xmlns="http://www.w3.org/2000/svg">
<g clip-path="url(#clip0_124_763)">
<path fill-rule="evenodd" clip-rule="evenodd" d="M2.58431 7.72973C2.58431 5.90916 3.09216 4.66716 3.87902 3.88031C4.66716 3.09216 5.90788 2.58431 7.72973 2.58431C9.55159 2.58431 10.7923 3.09216 11.5792 3.88031C12.3673 4.66716 12.8752 5.90916 12.8752 7.72973C12.8752 9.55159 12.3673 10.7923 11.5792 11.5804C10.7923 12.3673 9.55031 12.8752 7.72973 12.8752C5.90788 12.8752 4.66716 12.3673 3.87902 11.5804C3.09216 10.7923 2.58431 9.55159 2.58431 7.72973ZM7.72973 0.0128784C5.43474 0.0128784 3.46116 0.662164 2.06102 2.06102C0.662164 3.46116 0.0128784 5.43474 0.0128784 7.73102C0.0128784 10.0247 0.662164 11.9996 2.06102 13.3984C3.46116 14.7973 5.43474 15.4466 7.72973 15.4466C9.51945 15.4466 11.115 15.0519 12.3943 14.2123L15.786 17.604C16.0285 17.8382 16.3533 17.9678 16.6904 17.9649C17.0275 17.962 17.35 17.8267 17.5884 17.5884C17.8267 17.35 17.962 17.0275 17.9649 16.6904C17.9678 16.3533 17.8382 16.0285 17.604 15.786L14.2136 12.3956C15.0519 11.115 15.4466 9.52073 15.4466 7.72973C15.4466 5.43474 14.7973 3.46116 13.3984 2.06102C11.9983 0.662164 10.0247 0.0128784 7.72716 0.0128784H7.72973Z" fill="#949BA4"/>
</g>
<defs>
<clipPath id="clip0_124_763">
<rect width="18" height="18" fill="white"/>
</clipPath>
</defs>
</svg>
