<svg width="32" height="32" viewBox="0 0 32 32" fill="none" xmlns="http://www.w3.org/2000/svg">
<path fill-rule="evenodd" clip-rule="evenodd" d="M15.3615 1H17.1535C17.8239 1.00137 18.4785 1.20439 19.032 1.58267C19.5856 1.96095 20.0126 2.497 20.2575 3.12114L21.078 5.20571L23.5695 6.64343L25.7775 6.30743C26.4416 6.20742 27.1205 6.30986 27.7255 6.60138C28.3306 6.8929 28.8338 7.35998 29.1695 7.94171L30.0632 9.48686C30.3998 10.0684 30.5531 10.738 30.503 11.408C30.4528 12.0781 30.2015 12.7174 29.782 13.2423L28.3878 14.9863V17.8709L29.7729 19.6149C30.1912 20.1403 30.4418 20.7795 30.4919 21.4493C30.542 22.119 30.3895 22.7884 30.054 23.3703L29.1626 24.9154C28.8267 25.4969 28.3235 25.9638 27.7185 26.2553C27.1135 26.5468 26.4347 26.6494 25.7706 26.5497L23.5603 26.2137L21.0666 27.6537L20.2506 29.7337C20.0061 30.3583 19.5793 30.8948 19.0257 31.2735C18.4721 31.6522 17.8173 31.8556 17.1466 31.8571H15.3569C14.6862 31.8556 14.0314 31.6522 13.4778 31.2735C12.9242 30.8948 12.4974 30.3583 12.2529 29.7337L11.4369 27.6537L8.94319 26.2137L6.7329 26.5497C6.06899 26.6499 5.3903 26.5478 4.78526 26.2567C4.18022 25.9656 3.6769 25.499 3.3409 24.9177L2.44947 23.3703C2.11281 22.7888 1.95953 22.1192 2.00969 21.4491C2.05985 20.7791 2.31112 20.1398 2.73061 19.6149L4.1249 17.8709V14.9863L2.73061 13.2423C2.31135 12.7173 2.06004 12.0782 2.00948 11.4083C1.95892 10.7384 2.11146 10.0688 2.44719 9.48686L3.33861 7.94171C3.67444 7.35958 4.17799 6.89223 4.78351 6.60068C5.38904 6.30913 6.0684 6.20693 6.7329 6.30743L8.93633 6.64343L11.4369 5.19429L12.2575 3.12114C12.5018 2.49664 12.9287 1.96024 13.4824 1.58188C14.036 1.20352 14.6909 1.00075 15.3615 1ZM20.8175 16.4286C20.8175 19.3474 19.174 20.9909 16.2552 20.9909C13.3363 20.9909 11.6929 19.3474 11.6929 16.4286C11.6929 13.5097 13.3363 11.8663 16.2552 11.8663C19.174 11.8663 20.8175 13.5097 20.8175 16.4286Z" fill="black"/>
</svg>
