<svg width="24" height="24" viewBox="0 0 24 24" fill="none" xmlns="http://www.w3.org/2000/svg">
<path fill-rule="evenodd" clip-rule="evenodd" d="M12.5508 0C5.73579 0 0 5.29333 0 12.3516C0 18.6405 4.63989 24 10.9943 24C12.4357 24 13.4482 23.8125 14.0625 23.3972C14.5848 23.0614 14.8528 22.5892 14.9252 22.0774C14.9963 21.574 14.8771 21.0474 14.6588 20.5813C14.5112 20.2663 14.1746 20.1261 13.8651 20.1695C12.9949 20.2913 12.1489 20.3937 11.2817 20.3937C6.71483 20.3937 3.60635 16.3953 3.60635 12.3516C3.60635 7.74395 7.67579 3.58241 12.5508 3.58241C15.0038 3.58241 16.9631 4.36145 18.3066 5.61157C19.6497 6.86128 20.3937 8.59632 20.3937 10.5435C20.3937 11.9243 19.9749 13.1326 19.3265 13.8498C19.0046 14.2058 18.632 14.435 18.229 14.5172C17.8739 14.5896 17.4761 14.5517 17.0427 14.3601L17.7464 9.78512C17.9268 8.82843 17.4947 7.89445 16.7303 7.33947L16.7282 7.33803C15.5061 6.46837 14.0605 6.10837 12.5986 6.10837C8.9264 6.10837 6.27376 8.89621 6.27376 12.5274C6.27376 14.0314 6.79349 15.3375 7.70645 16.2687C8.62 17.2004 9.91184 17.741 11.4253 17.741C12.4365 17.741 13.5002 17.5474 14.4139 17.0329C15.3649 17.6084 16.4907 17.8665 17.5793 17.8665C19.7162 17.8665 21.3331 17.0337 22.4099 15.6852C23.4805 14.3443 24 12.5163 24 10.5435C24 4.14032 18.4221 0 12.5508 0ZM11.3713 10.6083C11.71 10.179 12.107 9.98155 12.5747 9.98155C12.8689 9.98155 13.1631 10.0138 13.3947 10.116L13.0628 13.7355C12.7981 13.9055 12.4868 13.9934 12.1197 13.9934C11.6685 13.9934 11.3655 13.8291 11.1688 13.5813C10.9652 13.3249 10.8539 12.9504 10.8539 12.5022C10.8539 11.6305 11.0393 11.0145 11.3684 10.6118L11.3713 10.6083Z" fill="black"/>
</svg>
