<svg width="48" height="48" viewBox="0 0 48 48" fill="none" xmlns="http://www.w3.org/2000/svg">
<g clip-path="url(#clip0_118_8385)">
<path fill-rule="evenodd" clip-rule="evenodd" d="M22.4149 0.164253C23.3283 -0.0547509 24.2804 -0.0547509 25.1937 0.164253C26.882 0.568434 30.2544 1.52836 34.452 3.52738C37.7199 5.08347 39.9842 6.43496 41.3803 7.35194C43.0181 8.42976 43.0181 10.7302 41.3803 11.8064C39.9842 12.7242 37.7208 14.0757 34.452 15.6318C30.2544 17.6299 26.882 18.5907 25.1937 18.994C24.2804 19.213 23.3283 19.213 22.4149 18.994C20.7266 18.5907 17.3543 17.6299 13.1567 15.6318C9.88786 14.0748 7.62444 12.7242 6.22833 11.8064C4.59056 10.7302 4.59056 8.42976 6.22833 7.35194C7.6236 6.43411 9.88786 5.08347 13.1567 3.52738C17.3534 1.52836 20.7266 0.568434 22.4149 0.164253ZM7.02238 15.2638C8.66797 16.2155 10.3521 17.099 12.0704 17.912C16.4558 20.0003 20.0008 21.0149 21.8272 21.4511C23.129 21.7627 24.4788 21.7627 25.7814 21.4511C27.607 21.0149 31.1528 20.0003 35.5382 17.912C37.2564 17.0993 38.9403 16.2158 40.5854 15.2638C40.8759 15.4457 41.1412 15.6158 41.3803 15.7724C43.0181 16.8502 43.0181 19.1507 41.3803 20.2268C39.9842 21.1446 37.7208 22.4953 34.452 24.0522C30.2544 26.0504 26.882 27.0111 25.1937 27.4153C24.2804 27.6343 23.3283 27.6343 22.4149 27.4153C20.7266 27.0111 17.3543 26.0512 13.1567 24.0522C9.88786 22.4953 7.62444 21.1446 6.22833 20.2268C4.59056 19.1507 4.59056 16.8502 6.22833 15.7724C6.46747 15.6158 6.73103 15.4457 7.02238 15.2638ZM7.02238 23.6842C8.66797 24.636 10.3521 25.5194 12.0704 26.3325C16.4558 28.4207 20.0008 29.4354 21.8272 29.8716C23.129 30.1831 24.4788 30.1831 25.7814 29.8716C27.607 29.4354 31.1528 28.4207 35.5382 26.3325C37.2564 25.5197 38.9403 24.6362 40.5854 23.6842C40.8759 23.8661 41.1412 24.0362 41.3803 24.1928C43.0181 25.2706 43.0181 27.5711 41.3803 28.6472C39.9842 29.5651 37.7208 30.9157 34.452 32.4726C30.2544 34.4708 26.882 35.4316 25.1937 35.8358C24.2804 36.0547 23.3283 36.0547 22.4149 35.8358C20.7266 35.4316 17.3543 34.4717 13.1567 32.4726C9.88786 30.9157 7.62444 29.5651 6.22833 28.6472C4.59056 27.5703 4.59056 25.2706 6.22833 24.1928C6.46747 24.0362 6.73103 23.8661 7.02238 23.6842Z" fill="black"/>
<path d="M10.7862 46.088C10.1995 46.088 9.63854 46 9.10321 45.824C8.56787 45.6407 8.14621 45.406 7.83821 45.12L8.24521 44.262C8.53854 44.5187 8.91254 44.7313 9.36721 44.9C9.82187 45.0687 10.2949 45.153 10.7862 45.153C11.2335 45.153 11.5965 45.1017 11.8752 44.999C12.1539 44.8963 12.3592 44.757 12.4912 44.581C12.6232 44.3977 12.6892 44.1923 12.6892 43.965C12.6892 43.701 12.6012 43.4883 12.4252 43.327C12.2565 43.1657 12.0329 43.0373 11.7542 42.942C11.4829 42.8393 11.1822 42.7513 10.8522 42.678C10.5222 42.6047 10.1885 42.5203 9.85121 42.425C9.52121 42.3223 9.21687 42.194 8.93821 42.04C8.66687 41.886 8.44687 41.6807 8.27821 41.424C8.10954 41.16 8.02521 40.8227 8.02521 40.412C8.02521 40.016 8.12787 39.653 8.33321 39.323C8.54587 38.9857 8.86854 38.718 9.30121 38.52C9.74121 38.3147 10.2985 38.212 10.9732 38.212C11.4205 38.212 11.8642 38.2707 12.3042 38.388C12.7442 38.5053 13.1255 38.674 13.4482 38.894L13.0852 39.774C12.7552 39.554 12.4069 39.3963 12.0402 39.301C11.6735 39.1983 11.3179 39.147 10.9732 39.147C10.5405 39.147 10.1849 39.202 9.90621 39.312C9.62754 39.422 9.42221 39.5687 9.29021 39.752C9.16554 39.9353 9.10321 40.1407 9.10321 40.368C9.10321 40.6393 9.18754 40.8557 9.35621 41.017C9.53221 41.1783 9.75587 41.3067 10.0272 41.402C10.3059 41.4973 10.6102 41.5853 10.9402 41.666C11.2702 41.7393 11.6002 41.8237 11.9302 41.919C12.2675 42.0143 12.5719 42.139 12.8432 42.293C13.1219 42.447 13.3455 42.6523 13.5142 42.909C13.6829 43.1657 13.7672 43.4957 13.7672 43.899C13.7672 44.2877 13.6609 44.6507 13.4482 44.988C13.2355 45.318 12.9055 45.5857 12.4582 45.791C12.0182 45.989 11.4609 46.088 10.7862 46.088ZM15.3742 46V38.3H16.4742V45.043H20.6432V46H15.3742ZM21.9055 46V38.3H23.0055V46H21.9055ZM25.3108 46V38.3H28.5558C29.3771 38.3 30.0994 38.4613 30.7228 38.784C31.3534 39.1067 31.8411 39.5577 32.1858 40.137C32.5378 40.7163 32.7138 41.3873 32.7138 42.15C32.7138 42.9127 32.5378 43.5837 32.1858 44.163C31.8411 44.7423 31.3534 45.1933 30.7228 45.516C30.0994 45.8387 29.3771 46 28.5558 46H25.3108ZM26.4108 45.043H28.4898C29.1278 45.043 29.6778 44.922 30.1398 44.68C30.6091 44.438 30.9721 44.1007 31.2288 43.668C31.4854 43.228 31.6138 42.722 31.6138 42.15C31.6138 41.5707 31.4854 41.0647 31.2288 40.632C30.9721 40.1993 30.6091 39.862 30.1398 39.62C29.6778 39.378 29.1278 39.257 28.4898 39.257H26.4108V45.043ZM35.3997 41.622H39.3597V42.557H35.3997V41.622ZM35.4987 45.043H39.9867V46H34.3987V38.3H39.8327V39.257H35.4987V45.043Z" fill="black"/>
</g>
<defs>
<clipPath id="clip0_118_8385">
<rect width="48" height="48" fill="white"/>
</clipPath>
</defs>
</svg>
