<svg width="48" height="48" viewBox="0 0 48 48" fill="none" xmlns="http://www.w3.org/2000/svg">
<g clip-path="url(#clip0_118_8384)">
<path d="M21.848 0.320728C23.097 -0.106909 24.4528 -0.106909 25.7018 0.320728C27.4537 0.919124 30.694 2.09117 35.422 4.06048C38.825 5.47913 41.2389 6.57693 42.8644 7.35564C43.9242 7.863 44.5323 8.86268 44.5323 9.92512C44.5323 10.9876 43.9242 11.9872 42.8635 12.4946C41.2389 13.2724 38.825 14.3711 35.422 15.7898C30.694 17.7591 27.4537 18.9311 25.7018 19.5286C24.4528 19.9563 23.097 19.9563 21.848 19.5286C20.0962 18.9311 16.8558 17.7591 12.1279 15.7898C10.8486 15.2575 9.57481 14.7122 8.30678 14.1537V28.2712C9.19017 28.5852 9.93433 29.201 10.408 30.0101C10.8817 30.8191 11.0546 31.7695 10.8961 32.6935C10.7376 33.6176 10.2579 34.4559 9.5416 35.0609C8.82533 35.6658 7.91847 35.9984 6.98094 36C6.04206 36.0008 5.13315 35.6695 4.41507 35.0646C3.69699 34.4597 3.21602 33.6203 3.05727 32.695C2.89853 31.7696 3.07225 30.8179 3.54768 30.0083C4.02312 29.1987 4.76963 28.5834 5.6551 28.2712V12.9533C5.30508 12.7898 4.98245 12.6369 4.68635 12.4946C3.62568 11.9872 3.01756 10.9876 3.01756 9.92512C3.01756 8.86268 3.62568 7.863 4.68635 7.35564C6.31095 6.57693 8.72486 5.47913 12.1287 4.06048C16.8558 2.09117 20.0953 0.91824 21.848 0.320728Z" fill="black"/>
<path d="M20.9924 21.5908C17.605 20.4331 14.2584 19.1596 10.9584 17.7723V18.0278C10.9584 20.805 11.1007 22.5834 11.2492 23.6847C11.4242 24.9893 12.1853 26.1357 13.3856 26.7642C15.1242 27.6737 18.4866 28.9288 23.7749 28.9288C29.0632 28.9288 32.4256 27.6737 34.1642 26.7633C35.3645 26.1357 36.1247 24.9893 36.3006 23.6847C36.4491 22.5834 36.5914 20.805 36.5914 18.0278V17.7715C33.2914 19.1587 29.9448 20.4322 26.5574 21.5899C24.7537 22.2066 22.7961 22.2075 20.9924 21.5908Z" fill="black"/>
<path d="M6.95548 46V39.257H4.31548V38.3H10.6845V39.257H8.04448V46H6.95548ZM14.9329 46.088C13.9209 46.088 13.1252 45.7983 12.5459 45.219C11.9666 44.6397 11.6769 43.7927 11.6769 42.678V38.3H12.7769V42.634C12.7769 43.492 12.9639 44.119 13.3379 44.515C13.7192 44.911 14.2546 45.109 14.9439 45.109C15.6406 45.109 16.1759 44.911 16.5499 44.515C16.9312 44.119 17.1219 43.492 17.1219 42.634V38.3H18.1889V42.678C18.1889 43.7927 17.8992 44.6397 17.3199 45.219C16.7479 45.7983 15.9522 46.088 14.9329 46.088ZM21.8334 46V39.257H19.1934V38.3H25.5624V39.257H22.9224V46H21.8334ZM30.129 46.088C29.5424 46.088 28.996 45.989 28.49 45.791C27.9914 45.593 27.5587 45.318 27.192 44.966C26.8254 44.6067 26.5394 44.1887 26.334 43.712C26.1287 43.2353 26.026 42.7147 26.026 42.15C26.026 41.5853 26.1287 41.0647 26.334 40.588C26.5394 40.1113 26.8254 39.697 27.192 39.345C27.5587 38.9857 27.9914 38.707 28.49 38.509C28.9887 38.311 29.535 38.212 30.129 38.212C30.7157 38.212 31.2547 38.311 31.746 38.509C32.2447 38.6997 32.6774 38.9747 33.044 39.334C33.418 39.686 33.704 40.1003 33.902 40.577C34.1074 41.0537 34.21 41.578 34.21 42.15C34.21 42.722 34.1074 43.2463 33.902 43.723C33.704 44.1997 33.418 44.6177 33.044 44.977C32.6774 45.329 32.2447 45.604 31.746 45.802C31.2547 45.9927 30.7157 46.088 30.129 46.088ZM30.129 45.109C30.5544 45.109 30.9467 45.0357 31.306 44.889C31.6727 44.7423 31.988 44.537 32.252 44.273C32.5234 44.0017 32.7324 43.6863 32.879 43.327C33.033 42.9677 33.11 42.5753 33.11 42.15C33.11 41.7247 33.033 41.3323 32.879 40.973C32.7324 40.6137 32.5234 40.302 32.252 40.038C31.988 39.7667 31.6727 39.5577 31.306 39.411C30.9467 39.2643 30.5544 39.191 30.129 39.191C29.6964 39.191 29.2967 39.2643 28.93 39.411C28.5707 39.5577 28.2554 39.7667 27.984 40.038C27.7127 40.302 27.5 40.6137 27.346 40.973C27.1994 41.3323 27.126 41.7247 27.126 42.15C27.126 42.5753 27.1994 42.9677 27.346 43.327C27.5 43.6863 27.7127 44.0017 27.984 44.273C28.2554 44.537 28.5707 44.7423 28.93 44.889C29.2967 45.0357 29.6964 45.109 30.129 45.109ZM35.8913 46V38.3H38.8943C39.569 38.3 40.1447 38.4063 40.6213 38.619C41.098 38.8317 41.4647 39.1397 41.7213 39.543C41.978 39.9463 42.1063 40.4267 42.1063 40.984C42.1063 41.5413 41.978 42.0217 41.7213 42.425C41.4647 42.821 41.098 43.1253 40.6213 43.338C40.1447 43.5507 39.569 43.657 38.8943 43.657H36.4963L36.9913 43.151V46H35.8913ZM41.0393 46L39.0813 43.206H40.2583L42.2383 46H41.0393ZM36.9913 43.261L36.4963 42.722H38.8613C39.5653 42.722 40.097 42.5717 40.4563 42.271C40.823 41.963 41.0063 41.534 41.0063 40.984C41.0063 40.434 40.823 40.0087 40.4563 39.708C40.097 39.4073 39.5653 39.257 38.8613 39.257H36.4963L36.9913 38.707V43.261Z" fill="black"/>
</g>
<defs>
<clipPath id="clip0_118_8384">
<rect width="48" height="48" fill="white"/>
</clipPath>
</defs>
</svg>
