<svg width="48" height="48" viewBox="0 0 48 48" fill="none" xmlns="http://www.w3.org/2000/svg">
<g clip-path="url(#clip0_118_8383)">
<path fill-rule="evenodd" clip-rule="evenodd" d="M24 36C35.52 36 42 29.52 42 18C42 6.48 35.52 0 24 0C12.48 0 6 6.48 6 18C6 29.52 12.48 36 24 36ZM33.3523 29.646C32.4453 27.9548 31.0965 26.5414 29.4495 25.5564C27.8025 24.5715 25.919 24.0519 24 24.0531C22.0816 24.0532 20.199 24.5734 18.5527 25.5582C16.9063 26.543 15.5577 27.9557 14.6503 29.646C16.7897 31.1837 19.8343 32.1429 24 32.1429C28.1657 32.1429 31.2103 31.1837 33.3523 29.646ZM30.0557 13.5489C30.0557 17.424 27.8751 19.6071 23.9974 19.6071C20.1223 19.6071 17.9417 17.424 17.9417 13.5489C17.9417 9.67114 20.1223 7.49057 23.9974 7.49057C27.8751 7.49057 30.0557 9.67114 30.0557 13.5489Z" fill="black"/>
<path d="M0.480195 46V38.3H3.4832C4.15786 38.3 4.73353 38.4063 5.2102 38.619C5.68686 38.8317 6.05353 39.1397 6.3102 39.543C6.56686 39.9463 6.6952 40.4267 6.6952 40.984C6.6952 41.5413 6.56686 42.0217 6.3102 42.425C6.05353 42.821 5.68686 43.129 5.2102 43.349C4.73353 43.5617 4.15786 43.668 3.4832 43.668H1.0852L1.5802 43.151V46H0.480195ZM1.5802 43.261L1.0852 42.711H3.4502C4.1542 42.711 4.68586 42.5607 5.0452 42.26C5.41186 41.9593 5.5952 41.534 5.5952 40.984C5.5952 40.434 5.41186 40.0087 5.0452 39.708C4.68586 39.4073 4.1542 39.257 3.4502 39.257H1.0852L1.5802 38.707V43.261ZM8.31125 46V38.3H11.3143C11.9889 38.3 12.5646 38.4063 13.0413 38.619C13.5179 38.8317 13.8846 39.1397 14.1413 39.543C14.3979 39.9463 14.5263 40.4267 14.5263 40.984C14.5263 41.5413 14.3979 42.0217 14.1413 42.425C13.8846 42.821 13.5179 43.1253 13.0413 43.338C12.5646 43.5507 11.9889 43.657 11.3143 43.657H8.91625L9.41125 43.151V46H8.31125ZM13.4593 46L11.5013 43.206H12.6783L14.6583 46H13.4593ZM9.41125 43.261L8.91625 42.722H11.2813C11.9853 42.722 12.5169 42.5717 12.8763 42.271C13.2429 41.963 13.4263 41.534 13.4263 40.984C13.4263 40.434 13.2429 40.0087 12.8763 39.708C12.5169 39.4073 11.9853 39.257 11.2813 39.257H8.91625L9.41125 38.707V43.261ZM19.7794 46.088C19.1928 46.088 18.6464 45.989 18.1404 45.791C17.6418 45.593 17.2091 45.318 16.8424 44.966C16.4758 44.6067 16.1898 44.1887 15.9844 43.712C15.7791 43.2353 15.6764 42.7147 15.6764 42.15C15.6764 41.5853 15.7791 41.0647 15.9844 40.588C16.1898 40.1113 16.4758 39.697 16.8424 39.345C17.2091 38.9857 17.6418 38.707 18.1404 38.509C18.6391 38.311 19.1854 38.212 19.7794 38.212C20.3661 38.212 20.9051 38.311 21.3964 38.509C21.8951 38.6997 22.3278 38.9747 22.6944 39.334C23.0684 39.686 23.3544 40.1003 23.5524 40.577C23.7578 41.0537 23.8604 41.578 23.8604 42.15C23.8604 42.722 23.7578 43.2463 23.5524 43.723C23.3544 44.1997 23.0684 44.6177 22.6944 44.977C22.3278 45.329 21.8951 45.604 21.3964 45.802C20.9051 45.9927 20.3661 46.088 19.7794 46.088ZM19.7794 45.109C20.2048 45.109 20.5971 45.0357 20.9564 44.889C21.3231 44.7423 21.6384 44.537 21.9024 44.273C22.1738 44.0017 22.3828 43.6863 22.5294 43.327C22.6834 42.9677 22.7604 42.5753 22.7604 42.15C22.7604 41.7247 22.6834 41.3323 22.5294 40.973C22.3828 40.6137 22.1738 40.302 21.9024 40.038C21.6384 39.7667 21.3231 39.5577 20.9564 39.411C20.5971 39.2643 20.2048 39.191 19.7794 39.191C19.3468 39.191 18.9471 39.2643 18.5804 39.411C18.2211 39.5577 17.9058 39.7667 17.6344 40.038C17.3631 40.302 17.1504 40.6137 16.9964 40.973C16.8498 41.3323 16.7764 41.7247 16.7764 42.15C16.7764 42.5753 16.8498 42.9677 16.9964 43.327C17.1504 43.6863 17.3631 44.0017 17.6344 44.273C17.9058 44.537 18.2211 44.7423 18.5804 44.889C18.9471 45.0357 19.3468 45.109 19.7794 45.109ZM26.5317 41.941H30.5027V42.887H26.5317V41.941ZM26.6417 46H25.5417V38.3H30.9757V39.257H26.6417V46ZM32.5241 46V38.3H33.6241V46H32.5241ZM35.9294 46V38.3H37.0294V45.043H41.1984V46H35.9294ZM43.4617 41.622H47.4217V42.557H43.4617V41.622ZM43.5607 45.043H48.0487V46H42.4607V38.3H47.8947V39.257H43.5607V45.043Z" fill="black"/>
</g>
<defs>
<clipPath id="clip0_118_8383">
<rect width="48" height="48" fill="white"/>
</clipPath>
</defs>
</svg>
