<svg width="300" height="30" viewBox="0 0 300 30" fill="none" xmlns="http://www.w3.org/2000/svg">
<path d="M102.846 20.3846V23.4615C102.846 23.8695 102.684 24.2609 102.396 24.5494C102.107 24.8378 101.716 25 101.308 25H90.5385C90.1304 25 89.7391 24.8378 89.4506 24.5494C89.1621 24.2609 89 23.8695 89 23.4615V6.53846C89 6.13043 89.1621 5.73912 89.4506 5.4506C89.7391 5.16209 90.1304 5 90.5385 5H101.308C101.716 5 102.107 5.16209 102.396 5.4506C102.684 5.73912 102.846 6.13043 102.846 6.53846V9.61538" stroke="black" stroke-width="2" stroke-linecap="round" stroke-linejoin="round"/>
<path d="M98.2308 15H109" stroke="black" stroke-width="2" stroke-linecap="round" stroke-linejoin="round"/>
<path d="M105.923 11.9231L109 15L105.923 18.0769" stroke="black" stroke-width="2" stroke-linecap="round" stroke-linejoin="round"/>
<path d="M121.328 23V11.8H123.92V20.888H129.536V23H121.328ZM134.873 23.128C133.956 23.128 133.14 22.936 132.425 22.552C131.721 22.168 131.161 21.6453 130.745 20.984C130.34 20.312 130.137 19.5493 130.137 18.696C130.137 17.832 130.34 17.0693 130.745 16.408C131.161 15.736 131.721 15.2133 132.425 14.84C133.14 14.456 133.956 14.264 134.873 14.264C135.78 14.264 136.59 14.456 137.305 14.84C138.02 15.2133 138.58 15.7307 138.985 16.392C139.39 17.0533 139.593 17.8213 139.593 18.696C139.593 19.5493 139.39 20.312 138.985 20.984C138.58 21.6453 138.02 22.168 137.305 22.552C136.59 22.936 135.78 23.128 134.873 23.128ZM134.873 21.08C135.289 21.08 135.662 20.984 135.993 20.792C136.324 20.6 136.585 20.328 136.777 19.976C136.969 19.6133 137.065 19.1867 137.065 18.696C137.065 18.1947 136.969 17.768 136.777 17.416C136.585 17.064 136.324 16.792 135.993 16.6C135.662 16.408 135.289 16.312 134.873 16.312C134.457 16.312 134.084 16.408 133.753 16.6C133.422 16.792 133.156 17.064 132.953 17.416C132.761 17.768 132.665 18.1947 132.665 18.696C132.665 19.1867 132.761 19.6133 132.953 19.976C133.156 20.328 133.422 20.6 133.753 20.792C134.084 20.984 134.457 21.08 134.873 21.08ZM145.309 26.232C144.499 26.232 143.715 26.1307 142.957 25.928C142.211 25.736 141.587 25.4427 141.085 25.048L142.077 23.256C142.44 23.5547 142.899 23.7893 143.453 23.96C144.019 24.1413 144.573 24.232 145.117 24.232C146.003 24.232 146.643 24.0347 147.037 23.64C147.443 23.2453 147.645 22.6587 147.645 21.88V20.584L147.805 18.424L147.773 16.248V14.392H150.141V21.56C150.141 23.16 149.725 24.3387 148.893 25.096C148.061 25.8533 146.867 26.232 145.309 26.232ZM144.925 22.584C144.125 22.584 143.4 22.4133 142.749 22.072C142.109 21.72 141.592 21.2347 141.197 20.616C140.813 19.9867 140.621 19.256 140.621 18.424C140.621 17.5813 140.813 16.8507 141.197 16.232C141.592 15.6027 142.109 15.1173 142.749 14.776C143.4 14.4347 144.125 14.264 144.925 14.264C145.651 14.264 146.291 14.4133 146.845 14.712C147.4 15 147.832 15.4533 148.141 16.072C148.451 16.68 148.605 17.464 148.605 18.424C148.605 19.3733 148.451 20.1573 148.141 20.776C147.832 21.384 147.4 21.8373 146.845 22.136C146.291 22.4347 145.651 22.584 144.925 22.584ZM145.421 20.536C145.859 20.536 146.248 20.4507 146.589 20.28C146.931 20.0987 147.197 19.848 147.389 19.528C147.581 19.208 147.677 18.84 147.677 18.424C147.677 17.9973 147.581 17.6293 147.389 17.32C147.197 17 146.931 16.7547 146.589 16.584C146.248 16.4027 145.859 16.312 145.421 16.312C144.984 16.312 144.595 16.4027 144.253 16.584C143.912 16.7547 143.64 17 143.437 17.32C143.245 17.6293 143.149 17.9973 143.149 18.424C143.149 18.84 143.245 19.208 143.437 19.528C143.64 19.848 143.912 20.0987 144.253 20.28C144.595 20.4507 144.984 20.536 145.421 20.536ZM161.092 23.128C160.174 23.128 159.358 22.936 158.644 22.552C157.94 22.168 157.38 21.6453 156.964 20.984C156.558 20.312 156.356 19.5493 156.356 18.696C156.356 17.832 156.558 17.0693 156.964 16.408C157.38 15.736 157.94 15.2133 158.644 14.84C159.358 14.456 160.174 14.264 161.092 14.264C161.998 14.264 162.809 14.456 163.524 14.84C164.238 15.2133 164.798 15.7307 165.204 16.392C165.609 17.0533 165.812 17.8213 165.812 18.696C165.812 19.5493 165.609 20.312 165.204 20.984C164.798 21.6453 164.238 22.168 163.524 22.552C162.809 22.936 161.998 23.128 161.092 23.128ZM161.092 21.08C161.508 21.08 161.881 20.984 162.212 20.792C162.542 20.6 162.804 20.328 162.996 19.976C163.188 19.6133 163.284 19.1867 163.284 18.696C163.284 18.1947 163.188 17.768 162.996 17.416C162.804 17.064 162.542 16.792 162.212 16.6C161.881 16.408 161.508 16.312 161.092 16.312C160.676 16.312 160.302 16.408 159.972 16.6C159.641 16.792 159.374 17.064 159.172 17.416C158.98 17.768 158.884 18.1947 158.884 18.696C158.884 19.1867 158.98 19.6133 159.172 19.976C159.374 20.328 159.641 20.6 159.972 20.792C160.302 20.984 160.676 21.08 161.092 21.08ZM171.112 23.128C170.397 23.128 169.757 22.9893 169.192 22.712C168.637 22.4347 168.205 22.0133 167.896 21.448C167.587 20.872 167.432 20.1413 167.432 19.256V14.392H169.928V18.888C169.928 19.6027 170.077 20.1307 170.376 20.472C170.685 20.8027 171.117 20.968 171.672 20.968C172.056 20.968 172.397 20.888 172.696 20.728C172.995 20.5573 173.229 20.3013 173.4 19.96C173.571 19.608 173.656 19.1707 173.656 18.648V14.392H176.152V23H173.784V20.632L174.216 21.32C173.928 21.9173 173.501 22.3707 172.936 22.68C172.381 22.9787 171.773 23.128 171.112 23.128ZM181.985 23.128C180.971 23.128 180.182 22.872 179.617 22.36C179.051 21.8373 178.769 21.064 178.769 20.04V12.488H181.265V20.008C181.265 20.3707 181.361 20.6533 181.553 20.856C181.745 21.048 182.006 21.144 182.337 21.144C182.731 21.144 183.067 21.0373 183.345 20.824L184.017 22.584C183.761 22.7653 183.451 22.904 183.089 23C182.737 23.0853 182.369 23.128 181.985 23.128ZM177.441 16.504V14.584H183.409V16.504H177.441Z" fill="black"/>
</svg>
